<svg width="82" height="51" viewBox="0 0 82 51" fill="none" xmlns="http://www.w3.org/2000/svg">
<path d="M73.6413 50.96C70.0146 50.96 67.1666 49.9467 65.0973 47.92C63.0279 45.872 61.9932 42.8213 61.9932 38.768V8.01599H72.4893V17.36H80.1373V25.68H72.4893V36.944C72.4893 38.6933 72.8733 39.92 73.6413 40.624C74.4093 41.328 75.4012 41.68 76.6172 41.68C77.2786 41.68 77.9293 41.6053 78.5693 41.456C79.2306 41.2853 79.8386 41.04 80.3932 40.72L81.7373 48.944C80.7346 49.4987 79.5292 49.968 78.1212 50.352C76.7132 50.7573 75.2199 50.96 73.6413 50.96ZM55.6572 25.68V17.36H62.9532V25.68H55.6572Z" fill="white"/>
<path d="M37.4207 50V14.384C37.4207 10.9067 38.4554 8.13332 40.5247 6.06399C42.6154 3.99466 45.5914 2.95999 49.4527 2.95999C50.7114 2.95999 51.9274 3.08799 53.1007 3.34399C54.2741 3.59999 55.4261 4.00532 56.5568 4.55999L55.0207 12.528C54.4021 12.1867 53.8047 11.952 53.2287 11.824C52.6741 11.696 52.1407 11.632 51.6287 11.632C50.4767 11.632 49.5594 11.8987 48.8768 12.432C48.2154 12.9653 47.8847 13.7973 47.8847 14.928V17.36H55.8527V25.68H47.8847V50H37.4207ZM31.7247 25.68V17.36H38.3807V25.68H31.7247Z" fill="white"/>
<path d="M17.6908 50V17.36H28.1868V50H17.6908ZM22.9388 12.528C21.2534 12.528 19.7814 12.0053 18.5228 10.96C17.2854 9.89332 16.6668 8.47466 16.6668 6.70399C16.6668 4.89066 17.2854 3.46132 18.5228 2.41599C19.7814 1.37066 21.2534 0.847992 22.9388 0.847992C24.6454 0.847992 26.1174 1.37066 27.3548 2.41599C28.5921 3.46132 29.2108 4.89066 29.2108 6.70399C29.2108 8.47466 28.5921 9.89332 27.3548 10.96C26.1174 12.0053 24.6454 12.528 22.9388 12.528Z" fill="white"/>
<path d="M0.680752 50V3.91998H11.1768V50H0.680752Z" fill="white"/>
</svg>
