<svg viewBox="0 0 135 57" fill="currentColor" xmlns="http://www.w3.org/2000/svg">
<path d="M11.4678 42.266C9.54248 42.266 7.81981 41.9493 6.29981 41.316C4.80515 40.6573 3.61448 39.7707 2.72781 38.656C1.86648 37.516 1.38515 36.2367 1.28381 34.818H8.50381C8.60515 35.502 8.92181 36.034 9.45381 36.414C9.98581 36.794 10.6445 36.984 11.4298 36.984C12.0378 36.984 12.5191 36.8573 12.8738 36.604C13.2285 36.3507 13.4058 36.0213 13.4058 35.616C13.4058 35.084 13.1145 34.6913 12.5318 34.438C11.9491 34.1847 10.9865 33.906 9.64381 33.602C8.12381 33.298 6.85715 32.956 5.84381 32.576C4.83048 32.196 3.94381 31.5753 3.18381 30.714C2.44915 29.8527 2.08181 28.6873 2.08181 27.218C2.08181 25.9513 2.42381 24.8113 3.10781 23.798C3.79181 22.7593 4.79248 21.936 6.10981 21.328C7.45248 20.72 9.06115 20.416 10.9358 20.416C13.7225 20.416 15.9138 21.1 17.5098 22.468C19.1058 23.836 20.0305 25.6347 20.2838 27.864H13.5578C13.4311 27.18 13.1271 26.6607 12.6458 26.306C12.1898 25.926 11.5691 25.736 10.7838 25.736C10.1758 25.736 9.70715 25.85 9.37781 26.078C9.07381 26.306 8.92181 26.6227 8.92181 27.028C8.92181 27.5347 9.21315 27.9273 9.79581 28.206C10.3785 28.4593 11.3158 28.7253 12.6078 29.004C14.1531 29.3333 15.4325 29.7007 16.4458 30.106C17.4845 30.5113 18.3838 31.17 19.1438 32.082C19.9291 32.9687 20.3218 34.1847 20.3218 35.73C20.3218 36.9713 19.9545 38.086 19.2198 39.074C18.5105 40.062 17.4845 40.8473 16.1418 41.43C14.8245 41.9873 13.2665 42.266 11.4678 42.266ZM30.2915 23.646C30.8741 22.658 31.6975 21.8727 32.7615 21.29C33.8255 20.7073 35.0795 20.416 36.5235 20.416C38.2208 20.416 39.7535 20.8593 41.1215 21.746C42.5148 22.6327 43.6041 23.8993 44.3895 25.546C45.2001 27.1927 45.6055 29.118 45.6055 31.322C45.6055 33.526 45.2001 35.464 44.3895 37.136C43.6041 38.7827 42.5148 40.0493 41.1215 40.936C39.7535 41.8227 38.2208 42.266 36.5235 42.266C35.0795 42.266 33.8255 41.9747 32.7615 41.392C31.7228 40.8093 30.8995 40.024 30.2915 39.036V52.184H22.8435V20.682H30.2915V23.646ZM38.0435 31.322C38.0435 29.9287 37.6635 28.852 36.9035 28.092C36.1688 27.3067 35.2568 26.914 34.1675 26.914C33.0781 26.914 32.1535 27.3067 31.3935 28.092C30.6588 28.8773 30.2915 29.954 30.2915 31.322C30.2915 32.7153 30.6588 33.8047 31.3935 34.59C32.1535 35.3753 33.0781 35.768 34.1675 35.768C35.2568 35.768 36.1688 35.3753 36.9035 34.59C37.6635 33.7793 38.0435 32.69 38.0435 31.322ZM57.4496 42.266C55.3216 42.266 53.4089 41.8227 51.7116 40.936C50.0396 40.0493 48.7223 38.7827 47.7596 37.136C46.7969 35.4893 46.3156 33.5513 46.3156 31.322C46.3156 29.118 46.7969 27.1927 47.7596 25.546C48.7476 23.8993 50.0776 22.6327 51.7496 21.746C53.4469 20.8593 55.3596 20.416 57.4876 20.416C59.6156 20.416 61.5156 20.8593 63.1876 21.746C64.8849 22.6327 66.2149 23.8993 67.1776 25.546C68.1656 27.1927 68.6596 29.118 68.6596 31.322C68.6596 33.526 68.1656 35.464 67.1776 37.136C66.2149 38.7827 64.8849 40.0493 63.1876 40.936C61.4903 41.8227 59.5776 42.266 57.4496 42.266ZM57.4496 35.806C58.4883 35.806 59.3496 35.426 60.0336 34.666C60.7429 33.8807 61.0976 32.766 61.0976 31.322C61.0976 29.878 60.7429 28.776 60.0336 28.016C59.3496 27.256 58.5009 26.876 57.4876 26.876C56.4743 26.876 55.6256 27.256 54.9416 28.016C54.2576 28.776 53.9156 29.878 53.9156 31.322C53.9156 32.7913 54.2449 33.906 54.9036 34.666C55.5623 35.426 56.4109 35.806 57.4496 35.806ZM83.1278 35.654V42H79.8978C74.4511 42 71.7278 39.302 71.7278 33.906V26.876H69.1058V20.682H71.7278V15.514H79.2138V20.682H83.0898V26.876H79.2138V34.02C79.2138 34.6027 79.3405 35.0207 79.5938 35.274C79.8725 35.5273 80.3285 35.654 80.9618 35.654H83.1278ZM95.3219 35.654V42H92.0919C86.6453 42 83.9219 39.302 83.9219 33.906V26.876H81.2999V20.682H83.9219V15.514H91.4079V20.682H95.2839V26.876H91.4079V34.02C91.4079 34.6027 91.5346 35.0207 91.7879 35.274C92.0666 35.5273 92.5226 35.654 93.1559 35.654H95.3219ZM117.966 31.094C117.966 31.6767 117.928 32.2593 117.852 32.842H103.754C103.83 34.0073 104.147 34.8813 104.704 35.464C105.287 36.0213 106.021 36.3 106.908 36.3C108.149 36.3 109.036 35.7427 109.568 34.628H117.51C117.181 36.0973 116.535 37.4147 115.572 38.58C114.635 39.72 113.444 40.6193 112 41.278C110.556 41.9367 108.96 42.266 107.212 42.266C105.109 42.266 103.235 41.8227 101.588 40.936C99.9667 40.0493 98.6874 38.7827 97.7501 37.136C96.8381 35.4893 96.3821 33.5513 96.3821 31.322C96.3821 29.0927 96.8381 27.1673 97.7501 25.546C98.6621 23.8993 99.9287 22.6327 101.55 21.746C103.197 20.8593 105.084 20.416 107.212 20.416C109.315 20.416 111.177 20.8467 112.798 21.708C114.419 22.5693 115.686 23.8107 116.598 25.432C117.51 27.028 117.966 28.9153 117.966 31.094ZM110.366 29.232C110.366 28.32 110.062 27.6107 109.454 27.104C108.846 26.572 108.086 26.306 107.174 26.306C106.262 26.306 105.515 26.5593 104.932 27.066C104.349 27.5473 103.969 28.2693 103.792 29.232H110.366ZM127.322 24.444C128.158 23.228 129.171 22.2653 130.362 21.556C131.553 20.8467 132.832 20.492 134.2 20.492V28.434H132.11C130.489 28.434 129.285 28.7507 128.5 29.384C127.715 30.0173 127.322 31.1193 127.322 32.69V42H119.874V20.682H127.322V24.444Z" fill="currentColor"/>
</svg>
